<!DOCTYPE svg PUBLIC "-//W3C//DTD SVG 1.1//EN" "http://www.w3.org/Graphics/SVG/1.1/DTD/svg11.dtd">
<!-- Uploaded to: SVG Repo, www.svgrepo.com, Transformed by: SVG Repo Mixer Tools -->
<svg fill="#FFDB70" height="800px" width="800px" version="1.1" id="Layer_1" xmlns="http://www.w3.org/2000/svg" xmlns:xlink="http://www.w3.org/1999/xlink" viewBox="0 0 512 512" xml:space="preserve">
<g id="SVGRepo_bgCarrier" stroke-width="0"/>
<g id="SVGRepo_tracerCarrier" stroke-linecap="round" stroke-linejoin="round"/>
<g id="SVGRepo_iconCarrier"> <g> <g> <polygon points="458.97,95.229 256,13.104 53.029,95.229 0,95.229 0,149.391 30.417,149.391 31.187,149.391 480.813,149.391 481.583,149.391 512,149.391 512,95.229 "/> </g> </g> <g> <g> <polygon points="481.583,444.734 480.813,444.734 31.187,444.734 30.417,444.734 0,444.734 0,498.896 512,498.896 512,444.734 "/> </g> </g> <g> <g> <path d="M480.813,221.945v-42.138h-30.417H61.604H31.187v42.138h15.209v150.234H31.187v42.138h30.417h388.792h30.417v-42.138 h-15.209V221.945H480.813z M157.27,372.179h-24.291V221.945h24.291V372.179z M268.146,372.179h-24.292V221.945h24.292V372.179z M379.02,372.179h-24.291V221.945h24.291V372.179z"/> </g> </g> </g>
</svg>